#!OML:ASF E:\emotionWalksFemale\Project 1\Capture day 1\Session 1\Female1.ASF
:FULLY-SPECIFIED
:DEGREES
1863
root 9.43818 15.2168 -37.8638 -176.231 -182.855 -181.914
lowerback 8.3035 0.331325 0.461726
upperback -4.59212 0.504474 0.00631262
thorax -9.55278 0.215405 -0.335917
lowerneck -4.71424 -4.39455 -6.00228
upperneck 10.1783 -5.96812 5.34592
head 4.15207 -2.90939 2.30183
rclavicle 1.22377e-014 5.76476e-015
rhumerus -43.5377 -0.876104 -80.5019
rradius 34.604
rwrist 21.399
rhand 176.362 -232.812
rfingers 7.12502
rthumb -157.899 -261.569
lclavicle 1.22377e-014 5.76476e-015
lhumerus -44.1291 1.3179 82.8137
lradius 41.026
lwrist -6.87566
lhand -10.4846 -36.5979
lfingers 7.12502
lthumb 15.517 -7.20048
rfemur -6.96097 6.30873 32.8187
rtibia 25.4252
rfoot -23.5371 -25.5186
rtoes 12.4995
lfemur -23.2092 -9.11898 -15.1537
ltibia 38.5723
lfoot -23.2962 7.77813
ltoes -32.8799
1864
root 9.43135 15.2175 -37.8697 -176.233 -182.847 -181.921
lowerback 8.39905 0.295131 0.503975
upperback -4.68553 0.459506 -0.0224854
thorax -9.7121 0.189007 -0.384098
lowerneck -4.62196 -4.3005 -6.02943
upperneck 10.2005 -5.86524 5.5342
head 4.14335 -2.85196 2.37196
rclavicle 2.85753e-015 7.55382e-015
rhumerus -43.7513 -0.728745 -80.6643
rradius 34.8126
rwrist 21.5052
rhand 176.549 -232.982
rfingers 7.12502
rthumb -157.719 -261.718
lclavicle 2.85753e-015 7.55382e-015
lhumerus -44.257 1.2376 82.7323
lradius 41.1969
lwrist -6.74673
lhand -9.54932 -36.5411
lfingers 7.12502
lthumb 16.4176 -7.21582
rfemur -6.98703 6.32067 32.862
rtibia 25.4318
rfoot -23.449 -25.5103
rtoes 12.4456
lfemur -23.233 -9.0434 -15.1145
ltibia 38.5589
lfoot -23.091 7.81002
ltoes -34.0434
1865
root 9.42291 15.2171 -37.8802 -176.164 -182.895 -181.871
lowerback 8.3941 0.22603 0.422957
upperback -4.71773 0.35846 -8.23047e-006
thorax -9.74619 0.146121 -0.297802
lowerneck -4.59457 -4.22739 -6.12978
upperneck 10.1229 -5.76814 5.64357
head 4.11535 -2.8032 2.42849
rclavicle -3.10601e-016 -9.54166e-015
rhumerus -43.7073 -0.473504 -80.788
rradius 34.8792
rwrist 21.577
rhand 176.505 -232.942
rfingers 7.12502
rthumb -157.761 -261.683
lclavicle -3.10601e-016 -9.54166e-015
lhumerus -44.2744 1.28041 82.7187
lradius 41.4771
lwrist -6.50365
lhand -8.40024 -36.3232
lfingers 7.12502
lthumb 17.5237 -7.09294
rfemur -7.12787 6.29321 32.8417
rtibia 25.4613
rfoot -23.3663 -25.4726
rtoes 12.6583
lfemur -23.3681 -8.94591 -15.115
ltibia 38.5401
lfoot -22.915 7.67651
ltoes -34.355
1866
root 9.42228 15.2132 -37.8748 -176.448 -182.576 -181.827
lowerback 8.50594 0.324621 0.426573
upperback -4.60915 0.487117 -0.0493098
thorax -9.6915 0.206484 -0.374223
lowerneck -4.55964 -4.24801 -6.07832
upperneck 10.0453 -5.79614 5.61546
head 4.08538 -2.8173 2.41109
rclavicle -8.94531e-015 7.95139e-016
rhumerus -43.7236 -0.460835 -80.8663
rradius 34.9134
rwrist 21.6517
rhand 176.368 -232.742
rfingers 7.12502
rthumb -157.893 -261.498
lclavicle -8.94531e-015 7.95139e-016
lhumerus -44.2481 0.964816 82.8766
lradius 41.7852
lwrist -6.38942
lhand -8.08756 -35.4424
lfingers 7.12502
lthumb 17.8246 -6.23925
rfemur -6.82867 6.32484 32.8065
rtibia 25.5456
rfoot -23.3748 -25.3157
rtoes 12.5128
lfemur -22.9468 -8.71194 -15.2263
ltibia 38.5473
lfoot -22.9137 7.80213
ltoes -34.9043
1867
root 9.41819 15.2128 -37.8755 -176.404 -182.456 -181.779
lowerback 8.35919 0.391638 0.394269
upperback -4.58644 0.569153 -0.0855905
thorax -9.57864 0.247422 -0.407003
lowerneck -4.60879 -4.31292 -6.02154
upperneck 10.0063 -5.88154 5.58759
head 4.08445 -2.85795 2.38756
rclavicle 1.42628e-014 -4.96962e-015
rhumerus -43.7171 -0.557729 -80.8636
rradius 34.9261
rwrist 21.7687
rhand 176.305 -232.622
rfingers 7.12502
rthumb -157.953 -261.386
lclavicle 1.42628e-014 -4.96962e-015
lhumerus -44.0726 0.661017 83.0027
lradius 41.91
lwrist -6.22626
lhand -7.58588 -35.4233
lfingers 7.12502
lthumb 18.3073 -6.26484
rfemur -6.93147 6.39382 32.7507
rtibia 25.6536
rfoot -23.4697 -25.2809
rtoes 12.1404
lfemur -22.9888 -8.59752 -15.263
ltibia 38.5722
lfoot -22.666 8.03654
ltoes -35.6214
1868
root 9.40212 15.2096 -37.8998 -176.258 -182.773 -181.743
lowerback 8.50858 0.29097 0.331867
upperback -4.66157 0.425343 -0.101724
thorax -9.75157 0.180494 -0.366816
lowerneck -4.76112 -4.3499 -5.99635
upperneck 10.0593 -5.9269 5.5781
head 4.12771 -2.87714 2.37428
rclavicle -9.7653e-015 -1.98785e-016
rhumerus -43.6628 -0.636441 -80.9007
rradius 34.9306
rwrist 22.079
rhand 176.376 -232.522
rfingers 7.12502
rthumb -157.885 -261.277
lclavicle -9.7653e-015 -1.98785e-016
lhumerus -44 0.415126 83.0345
lradius 42.0551
lwrist -6.2116
lhand -7.29074 -35.3726
lfingers 7.12502
lthumb 18.5912 -6.241
rfemur -7.22079 6.39328 32.8021
rtibia 25.7333
rfoot -23.6054 -25.4653
rtoes 12.6486
lfemur -23.3803 -8.49458 -15.1931
ltibia 38.6308
lfoot -22.3905 7.79691
ltoes -35.8807
1869
root 9.38931 15.2061 -37.9137 -176.249 -182.933 -181.772
lowerback 8.46912 0.234213 0.296036
upperback -4.58165 0.348701 -0.0508351
thorax -9.6413 0.148122 -0.278946
lowerneck -5.01262 -4.36789 -5.99253
upperneck 10.1139 -5.93079 5.48988
head 4.18399 -2.8789 2.34056
rclavicle 9.25591e-016 -3.97569e-015
rhumerus -43.4873 -0.590783 -80.9188
rradius 35.0094
rwrist 22.3662
rhand 176.544 -232.283
rfingers 7.12502
rthumb -157.724 -261.019
lclavicle 9.25591e-016 -3.97569e-015
lhumerus -43.9074 0.238914 83.158
lradius 42.2961
lwrist -6.31022
lhand -7.27568 -35.4542
lfingers 7.12502
lthumb 18.6057 -6.32401
rfemur -7.3046 6.43008 32.9144
rtibia 25.7831
rfoot -23.5635 -25.6016
rtoes 13.4061
lfemur -23.5499 -8.35859 -15.0974
ltibia 38.7183
lfoot -22.3262 7.50945
ltoes -34.9518
1870
root 9.38091 15.2025 -37.9222 -176.344 -183.001 -181.833
lowerback 8.49531 0.200397 0.313746
upperback -4.50958 0.309127 -0.00835008
thorax -9.57798 0.129654 -0.236909
lowerneck -5.15211 -4.37342 -5.96748
upperneck 10.1618 -5.92644 5.41157
head 4.21865 -2.87731 2.30942
rclavicle 2.23012e-015 -1.19271e-015
rhumerus -43.4497 -0.43666 -81.0404
rradius 35.1993
rwrist 22.3264
rhand 176.546 -232.12
rfingers 7.12502
rthumb -157.722 -260.855
lclavicle 2.23012e-015 -1.19271e-015
lhumerus -43.8785 0.0851729 83.2618
lradius 42.5783
lwrist -6.34927
lhand -7.18291 -36.0389
lfingers 7.12502
lthumb 18.6949 -6.91721
rfemur -7.23892 6.45416 33.0429
rtibia 25.7823
rfoot -23.3834 -25.7541
rtoes 13.4202
lfemur -23.5618 -8.27279 -14.9941
ltibia 38.8335
lfoot -22.2687 7.23145
ltoes -32.8453
